<?xml version="1.0" encoding="utf-8"?>
<!-- Generator: Adobe Illustrator 19.0.0, SVG Export Plug-In . SVG Version: 6.00 Build 0)  -->
<svg version="1.1" id="Warstwa_1" xmlns="http://www.w3.org/2000/svg" xmlns:xlink="http://www.w3.org/1999/xlink" x="0px" y="0px"
	 viewBox="-262 385.89 70 70" style="enable-background:new -262 385.89 70 70;" xml:space="preserve">
<g>
	<path style="fill:none;stroke:#000000;stroke-width:0.5;stroke-miterlimit:10;" d="M-253.25,428.032h5.739l1.01,3.027l-4.486,4.485
		c-0.684,0.684-0.684,1.791,0,2.475l7,7c0.684,0.684,1.793,0.684,2.475,0l4.486-4.485l3.027,1.009v5.739
		c0,0.966,0.784,1.75,1.75,1.75h10.5c0.967,0,1.75-0.784,1.75-1.75v-5.739l3.028-1.009l4.484,4.485c0.684,0.684,1.793,0.684,2.475,0
		l7-7c0.684-0.684,0.684-1.791,0-2.475l-4.484-4.485l1.008-3.027h5.739c0.967,0,1.75-0.784,1.75-1.75v-10.5
		c0-0.966-0.783-1.75-1.75-1.75h-5.739l-1.008-3.027l4.484-4.485c0.684-0.684,0.684-1.791,0-2.475l-7-7
		c-0.682-0.684-1.791-0.684-2.475,0l-4.484,4.485l-3.028-1.009v-5.739c0-0.966-0.783-1.75-1.75-1.75h-10.5
		c-0.966,0-1.75,0.784-1.75,1.75v5.739l-3.027,1.009l-4.486-4.485c-0.682-0.684-1.791-0.684-2.475,0l-7,7
		c-0.684,0.684-0.684,1.791,0,2.475l4.486,4.485l-1.01,3.027h-5.739c-0.966,0-1.75,0.784-1.75,1.75v10.5
		C-255,427.249-254.216,428.032-253.25,428.032z M-251.5,417.532h5.25c0.754,0,1.422-0.482,1.661-1.196l1.75-5.25
		c0.208-0.629,0.045-1.323-0.424-1.791l-4.012-4.013l4.525-4.525l4.013,4.013c0.468,0.468,1.162,0.631,1.791,0.423l5.25-1.75
		c0.714-0.238,1.196-0.907,1.196-1.66v-5.25h7v5.25c0,0.754,0.482,1.422,1.197,1.66l5.25,1.75c0.63,0.209,1.322,0.046,1.79-0.423
		l4.013-4.013l4.525,4.525l-4.013,4.013c-0.468,0.468-0.632,1.162-0.422,1.791l1.75,5.25c0.238,0.714,0.907,1.196,1.66,1.196h5.25v7
		h-5.25c-0.753,0-1.422,0.482-1.66,1.196l-1.75,5.25c-0.21,0.629-0.046,1.323,0.422,1.791l4.013,4.013l-4.525,4.525l-4.013-4.013
		c-0.468-0.469-1.162-0.633-1.79-0.423l-5.25,1.75c-0.715,0.238-1.197,0.907-1.197,1.66v5.25h-7v-5.25
		c0-0.754-0.482-1.422-1.196-1.66l-5.25-1.75c-0.627-0.209-1.322-0.045-1.791,0.423l-4.013,4.013l-4.525-4.525l4.012-4.013
		c0.469-0.468,0.632-1.162,0.424-1.791l-1.75-5.25c-0.239-0.714-0.908-1.196-1.661-1.196h-5.25V417.532z"/>
	<path style="fill:none;stroke:#000000;stroke-width:0.5;stroke-miterlimit:10;" d="M-227,431.269
		c5.646,0,10.237-4.593,10.237-10.237c0-5.645-4.591-10.237-10.237-10.237c-5.644,0-10.237,4.593-10.237,10.237
		C-237.237,426.677-232.644,431.269-227,431.269z M-227,415.913c2.823,0,5.119,2.297,5.119,5.119c0,2.822-2.296,5.119-5.119,5.119
		c-2.822,0-5.119-2.297-5.119-5.119C-232.119,418.21-229.822,415.913-227,415.913z"/>
</g>
</svg>
