<?xml version="1.0" encoding="utf-8"?>
<!-- Generator: Adobe Illustrator 19.0.0, SVG Export Plug-In . SVG Version: 6.00 Build 0)  -->
<svg version="1.1" id="Warstwa_1" xmlns="http://www.w3.org/2000/svg" xmlns:xlink="http://www.w3.org/1999/xlink" x="0px" y="0px"
	 viewBox="-262 385.89 70 70" style="enable-background:new -262 385.89 70 70;" xml:space="preserve">
<path style="fill:none;stroke:#000000;stroke-width:0.5;stroke-miterlimit:10;" d="M-200.75,413.89h-5.739l-1.008-3.027l4.484-4.485
	c0.684-0.684,0.684-1.791,0-2.475l-7-7c-0.682-0.684-1.791-0.684-2.475,0l-4.484,4.485l-3.028-1.009v-5.739
	c0-0.966-0.783-1.75-1.75-1.75h-10.5c-0.966,0-1.75,0.784-1.75,1.75v5.739l-3.027,1.009l-4.486-4.485
	c-0.682-0.684-1.791-0.684-2.475,0l-7,7c-0.684,0.684-0.684,1.791,0,2.475l4.486,4.485l-1.01,3.027h-5.739
	c-0.966,0-1.75,0.784-1.75,1.75v10.5c0,0.966,0.784,1.75,1.75,1.75h5.739l1.01,3.028l-4.486,4.485c-0.684,0.684-0.684,1.791,0,2.475
	l7,7c0.684,0.683,1.793,0.683,2.475,0l4.486-4.485l3.027,1.009v5.739c0,0.966,0.784,1.75,1.75,1.75h10.5
	c0.967,0,1.75-0.784,1.75-1.75v-5.739l3.028-1.009l4.484,4.485c0.684,0.683,1.793,0.683,2.475,0l7-7
	c0.684-0.684,0.684-1.791,0-2.475l-4.484-4.485l1.008-3.028h5.739c0.967,0,1.75-0.784,1.75-1.75v-10.5
	C-199,414.674-199.783,413.89-200.75,413.89z M-227,433.89c-7.167,0-13-5.833-13-13c0-7.167,5.833-13,13-13c7.17,0,13,5.833,13,13
	C-214,428.057-219.83,433.89-227,433.89z"/>
</svg>
