<?xml version="1.0" encoding="utf-8"?>
<!-- Generator: Adobe Illustrator 21.0.2, SVG Export Plug-In . SVG Version: 6.00 Build 0)  -->
<svg version="1.1" id="Warstwa_1" xmlns="http://www.w3.org/2000/svg" xmlns:xlink="http://www.w3.org/1999/xlink" x="0px" y="0px"
	 viewBox="0 0 283 233" style="enable-background:new 0 0 283 233;" xml:space="preserve">
<style type="text/css">
	.st0{fill:none;stroke:#D42200;stroke-miterlimit:10;}
</style>
<path class="st0" d="M91.7,73.2c-15-2.1-31.7-2.6-43.4,7.4c-14.7,12.5-17.8,35.9-15,55.8c3.2,22.6,41.5,35.4,58.3,42.2
	c16.7,6.8,33.7,17.1,41.3,34.4c4.5-21,25.3-32.8,44.5-39.5c19.2-6.7,37.3-15,53.1-28.9c20-17.7,27-43.2,15.7-68.2
	c-3.8-8.5-11-16.7-29.7-19c-16.9-2.1-38.9,4-60.4,15.5C144.5,79.2,131,95.5,131,95.5S106.1,75.2,91.7,73.2z"/>
<circle class="st0" cx="236.6" cy="40.4" r="12.5"/>
</svg>
