<?xml version="1.0" encoding="utf-8"?>
<!-- Generator: Adobe Illustrator 19.0.0, SVG Export Plug-In . SVG Version: 6.00 Build 0)  -->
<svg version="1.1" id="Warstwa_1" xmlns="http://www.w3.org/2000/svg" xmlns:xlink="http://www.w3.org/1999/xlink" x="0px" y="0px"
	 viewBox="-262 385.89 70 70" style="enable-background:new -262 385.89 70 70;" xml:space="preserve">
<path style="fill:none;stroke:#000000;stroke-width:0.5;stroke-miterlimit:10;" d="M-216.07,425.111c-0.717-0.718-1.883-0.718-2.6,0
	l-1.458,1.458l-14.869-14.869l9.733-9.733c0.718-0.718,0.718-1.882,0-2.6l-3.678-3.678c-0.713-0.713-1.874-0.713-2.593-0.007
	c-0.02,0.02-1.99,1.92-4.427,1.92c-1.412,0-2.725-0.625-4.012-1.912c-0.717-0.718-1.883-0.718-2.6,0l-14.711,14.71
	c-0.718,0.718-0.718,1.882,0,2.6l9.194,9.194c0.359,0.359,0.83,0.539,1.3,0.539c0.47,0,0.941-0.18,1.3-0.539l7.894-7.894
	l14.869,14.869l-1.458,1.458c-0.718,0.718-0.718,1.882,0,2.6l16.549,16.549c0.359,0.359,0.83,0.539,1.3,0.539
	c0.47,0,0.941-0.18,1.3-0.539l5.516-5.516c0.718-0.718,0.718-1.882,0-2.6L-216.07,425.111z M-246.791,418.295l-6.593-6.594
	l12.205-12.206c1.613,1.186,3.362,1.785,5.217,1.785c2.347,0,4.321-0.994,5.574-1.837l1.224,1.225L-246.791,418.295z
	 M-206.337,445.877l-13.949-13.949l2.916-2.916l13.949,13.949L-206.337,445.877z"/>
</svg>
