<?xml version="1.0" encoding="utf-8"?>
<!-- Generator: Adobe Illustrator 19.0.0, SVG Export Plug-In . SVG Version: 6.00 Build 0)  -->
<svg version="1.1" id="Warstwa_1" xmlns="http://www.w3.org/2000/svg" xmlns:xlink="http://www.w3.org/1999/xlink" x="0px" y="0px"
	 viewBox="-262 385.89 70 70" style="enable-background:new -262 385.89 70 70;" xml:space="preserve">
<path style="fill:none;stroke:#000000;stroke-width:0.5;stroke-miterlimit:10;" d="M-209.703,409.14
	c-6.764,0-12.362,5.023-13.299,11.531h-32.826c-1.061,0-1.922,0.861-1.922,1.922c0,1.061,0.861,1.922,1.922,1.922h1.922v5.766
	c0,1.061,0.861,1.922,1.922,1.922c1.061,0,1.922-0.861,1.922-1.922v-5.766h3.844v1.922c0,1.061,0.861,1.922,1.922,1.922
	c1.061,0,1.922-0.861,1.922-1.922v-1.922h19.373c0.937,6.509,6.535,11.531,13.299,11.531c7.418,0,13.453-6.035,13.453-13.453
	C-196.25,415.175-202.285,409.14-209.703,409.14z M-209.463,432.203c-5.298,0-9.609-4.311-9.609-9.609s4.311-9.609,9.609-9.609
	c5.298,0,9.609,4.311,9.609,9.609S-204.165,432.203-209.463,432.203z"/>
</svg>
