<?xml version="1.0" encoding="utf-8"?>
<!-- Generator: Adobe Illustrator 19.0.0, SVG Export Plug-In . SVG Version: 6.00 Build 0)  -->
<svg version="1.1" id="Warstwa_1" xmlns="http://www.w3.org/2000/svg" xmlns:xlink="http://www.w3.org/1999/xlink" x="0px" y="0px"
	 viewBox="-262 385.89 70 70" style="enable-background:new -262 385.89 70 70;" xml:space="preserve">
<path style="fill:none;stroke:#000000;stroke-width:0.5;stroke-miterlimit:10;" d="M-215.299,424.89
	c-0.682-0.681-1.786-0.681-2.467,0l-1.383,1.383l-3.324-3.324c2.62-3.169,4.196-7.231,4.196-11.655
	c0-10.101-8.218-18.319-18.319-18.319c-10.101,0-18.319,8.218-18.319,18.319c0,10.101,8.218,18.319,18.319,18.319
	c4.424,0,8.486-1.577,11.655-4.197l3.324,3.324l-1.383,1.383c-0.681,0.681-0.681,1.786,0,2.467l15.702,15.702
	c0.341,0.341,0.787,0.511,1.234,0.511c0.446,0,0.893-0.17,1.233-0.511l5.234-5.234c0.682-0.681,0.682-1.786,0-2.467L-215.299,424.89
	z M-251.425,411.295c0-8.177,6.652-14.829,14.829-14.829c8.177,0,14.829,6.652,14.829,14.829c0,8.177-6.652,14.829-14.829,14.829
	C-244.773,426.124-251.425,419.472-251.425,411.295z M-206.064,444.592l-13.235-13.234l2.767-2.767l13.235,13.234L-206.064,444.592z
	"/>
</svg>
