<svg id="Warstwa_1" data-name="Warstwa 1" xmlns="http://www.w3.org/2000/svg" viewBox="0 0 70 70"><defs><style>.cls-1{fill:none;stroke:#000;stroke-miterlimit:10;stroke-width:0.5px;}</style></defs><title>generator ikon</title><path class="cls-1" d="M35,17A18,18,0,1,0,53,35,18,18,0,0,0,35,17ZM35,3a2,2,0,0,1,2,2v8a2,2,0,0,1-4,0V5A2,2,0,0,1,35,3Zm2,54v8a2,2,0,0,1-4,0V57a2,2,0,0,1,4,0ZM67,35a2,2,0,0,1-2,2H57a2,2,0,0,1,0-4h8A2,2,0,0,1,67,35ZM13,37H5a2,2,0,0,1,0-4h8a2,2,0,0,1,0,4ZM56.41,13.59a2,2,0,0,1,0,2.83l-4,4a2,2,0,1,1-2.83-2.83l4-4A2,2,0,0,1,56.41,13.59Zm-36,36a2,2,0,0,1,0,2.83l-4,4a2,2,0,0,1-2.83-2.83l4-4A2,2,0,0,1,20.41,49.59Zm36,4a2,2,0,1,1-2.83,2.83l-4-4a2,2,0,1,1,2.83-2.83Zm-40-40,4,4a2,2,0,1,1-2.83,2.83l-4-4a2,2,0,0,1,2.83-2.83Z"/></svg>