<?xml version="1.0" encoding="utf-8"?>
<!-- Generator: Adobe Illustrator 19.0.0, SVG Export Plug-In . SVG Version: 6.00 Build 0)  -->
<svg version="1.1" id="Warstwa_1" xmlns="http://www.w3.org/2000/svg" xmlns:xlink="http://www.w3.org/1999/xlink" x="0px" y="0px"
	 viewBox="-262 385.89 70 70" style="enable-background:new -262 385.89 70 70;" xml:space="preserve">
<title>squer2</title>
<path style="fill:none;stroke:#000000;stroke-width:0.5;stroke-miterlimit:10;" d="M-253,432.74c0,3.974,3.222,7.196,7.196,7.196h0
	c3.091,0,5.597,2.506,5.597,5.597v2.399c0,0.625,0.364,1.192,0.931,1.453c0.214,0.098,0.442,0.146,0.668,0.146
	c0.375,0,0.746-0.132,1.041-0.385l9.172-7.862c1.014-0.869,2.306-1.348,3.642-1.348h15.727c3.974,0,7.196-3.222,7.196-7.196v-22.387
	c0-3.974-3.222-7.196-7.196-7.196h-36.779c-3.974,0-7.196,3.222-7.196,7.196V432.74z"/>
</svg>
