<?xml version="1.0" encoding="utf-8"?>
<!-- Generator: Adobe Illustrator 19.0.0, SVG Export Plug-In . SVG Version: 6.00 Build 0)  -->
<svg version="1.1" id="Warstwa_1" xmlns="http://www.w3.org/2000/svg" xmlns:xlink="http://www.w3.org/1999/xlink" x="0px" y="0px"
	 viewBox="-262 385.89 70 70" style="enable-background:new -262 385.89 70 70;" xml:space="preserve">
<path style="fill:none;stroke:#000000;stroke-width:0.5;stroke-miterlimit:10;" d="M-198.849,419.817
	c0,10.727-12.604,19.423-28.151,19.423c-0.519,0-1.034-0.011-1.545-0.03c0,0,0.005,0.002,0.004,0.001l-1.724-0.07
	c-0.072-0.025-0.148-0.033-0.221-0.055c-0.598-0.051-1.191-0.114-1.777-0.19c-0.512,0.037-1.02,0.136-1.504,0.328l-10.128,4.022
	c-0.326,0.129-0.681,0.133-1.001,0.023c-0.193-0.066-0.373-0.174-0.527-0.32c-0.408-0.389-0.551-0.979-0.369-1.512l0.702-2.046
	c0.647-1.886,0.471-3.8-0.637-5.075c-0.604-0.372-1.183-0.762-1.739-1.168c-0.01-0.003-0.017-0.009-0.027-0.013
	c-0.05-0.017-0.087-0.051-0.117-0.092c-4.676-3.468-7.541-8.114-7.541-13.225c0-10.727,12.604-19.423,28.151-19.423
	C-211.452,400.394-198.849,409.09-198.849,419.817z"/>
</svg>
