<?xml version="1.0" encoding="utf-8"?>
<!-- Generator: Adobe Illustrator 21.0.2, SVG Export Plug-In . SVG Version: 6.00 Build 0)  -->
<svg version="1.1" id="Warstwa_1" xmlns="http://www.w3.org/2000/svg" xmlns:xlink="http://www.w3.org/1999/xlink" x="0px" y="0px"
	 viewBox="0 0 377 183" style="enable-background:new 0 0 377 183;" xml:space="preserve">
<g>
	<path d="M62.4,56.1H33V45.5h71.7v10.6H75.1v86.2H62.4V56.1z"/>
	<path d="M165.6,97H128v34.9h42v10.5h-54.5V45.5h52.3V56H128v30.6h37.6V97z"/>
	<path d="M239.2,142.4L226.8,121c-5-8.2-8.2-13.5-11.2-19.1h-0.3c-2.7,5.6-5.5,10.8-10.5,19.3l-11.6,21.3h-14.4l29.6-49L180,45.5
		h14.5l12.8,22.7c3.6,6.3,6.3,11.2,8.9,16.4h0.4c2.7-5.7,5.2-10.2,8.8-16.4l13.2-22.7H253l-29.5,47.1l30.2,49.7H239.2z"/>
	<path d="M287.8,56.1h-29.5V45.5H330v10.6h-29.6v86.2h-12.6V56.1z"/>
</g>
</svg>
