<?xml version="1.0" encoding="utf-8"?>
<!-- Generator: Adobe Illustrator 19.0.0, SVG Export Plug-In . SVG Version: 6.00 Build 0)  -->
<svg version="1.1" id="Warstwa_1" xmlns="http://www.w3.org/2000/svg" xmlns:xlink="http://www.w3.org/1999/xlink" x="0px" y="0px"
	 viewBox="-262 385.89 70 70" style="enable-background:new -262 385.89 70 70;" xml:space="preserve">
<path style="fill:none;stroke:#000000;stroke-width:0.5;stroke-miterlimit:10;" d="M-226.522,413.453l-6.65-6.651v-3.013
	c0-7.458-4.6-11.4-13.3-11.4c-0.659,0-1.27,0.341-1.616,0.901c-0.347,0.559-0.378,1.259-0.083,1.849l3.188,6.375l-1.863,1.863
	l-6.375-3.188c-0.589-0.294-1.289-0.263-1.848,0.083c-0.56,0.346-0.902,0.958-0.902,1.617c0,8.7,3.942,13.3,11.4,13.3h3.013
	l6.65,6.65l2.687,2.686l22.407,22.407c0.208,0.209,0.462,0.366,0.742,0.459l5.7,1.9c0.683,0.227,1.436,0.05,1.945-0.459l1.9-1.9
	c0.362-0.362,0.557-0.848,0.557-1.344c0-0.201-0.031-0.404-0.097-0.6l-1.9-5.7c-0.094-0.28-0.251-0.534-0.459-0.743l-22.407-22.407
	L-226.522,413.453z M-204.432,440.917l1.387,4.16l-0.239,0.239l-4.161-1.387l-31.983-31.982c-0.356-0.356-0.84-0.557-1.343-0.557
	h-3.8c-3.216,0-6.494-0.827-7.372-6.312l4.622,2.311c0.731,0.366,1.615,0.222,2.193-0.356l3.8-3.8
	c0.579-0.578,0.722-1.463,0.356-2.193l-2.312-4.622c5.486,0.879,6.312,4.156,6.312,7.372v3.8c0,0.504,0.2,0.987,0.557,1.343
	L-204.432,440.917z"/>
</svg>
